<?xml version="1.0" encoding="UTF-8" standalone="no"?>
<svg
   width="599.97357cm"
   height="599.97357cm"
   version="1.1"
   id="svg109"
   xmlns="http://www.w3.org/2000/svg"
   xmlns:svg="http://www.w3.org/2000/svg"
   xmlns:rdf="http://www.w3.org/1999/02/22-rdf-syntax-ns#"
   xmlns:cc="http://creativecommons.org/ns#"
   xmlns:dc="http://purl.org/dc/elements/1.1/">
  <defs
     id="defs109" />
  <title
     id="title1">15 by 15 orthogonal maze</title>
  <desc
     id="desc1">15 by 15 orthogonal maze generated by The Maze Generator Website (https://www.mazegenerator.net/).</desc>
  <g
     fill="none"
     stroke="#000000"
     stroke-width="2"
     stroke-linecap="square"
     id="g109"
     transform="matrix(93.703163,0,0,93.703163,-93.703163,-93.703163)">
    <line
       x1="2"
       y1="2"
       x2="114"
       y2="2"
       id="line1" />
    <line
       x1="130"
       y1="2"
       x2="242"
       y2="2"
       id="line2" />
    <line
       x1="34"
       y1="18"
       x2="66"
       y2="18"
       id="line3" />
    <line
       x1="130"
       y1="18"
       x2="162"
       y2="18"
       id="line4" />
    <line
       x1="194"
       y1="18"
       x2="210"
       y2="18"
       id="line5" />
    <line
       x1="18"
       y1="34"
       x2="50"
       y2="34"
       id="line6" />
    <line
       x1="82"
       y1="34"
       x2="114"
       y2="34"
       id="line7" />
    <line
       x1="50"
       y1="50"
       x2="82"
       y2="50"
       id="line8" />
    <line
       x1="98"
       y1="50"
       x2="130"
       y2="50"
       id="line9" />
    <line
       x1="146"
       y1="50"
       x2="178"
       y2="50"
       id="line10" />
    <line
       x1="18"
       y1="66"
       x2="34"
       y2="66"
       id="line11" />
    <line
       x1="82"
       y1="66"
       x2="114"
       y2="66"
       id="line12" />
    <line
       x1="162"
       y1="66"
       x2="194"
       y2="66"
       id="line13" />
    <line
       x1="210"
       y1="66"
       x2="242"
       y2="66"
       id="line14" />
    <line
       x1="66"
       y1="82"
       x2="98"
       y2="82"
       id="line15" />
    <line
       x1="130"
       y1="82"
       x2="162"
       y2="82"
       id="line16" />
    <line
       x1="194"
       y1="82"
       x2="210"
       y2="82"
       id="line17" />
    <line
       x1="50"
       y1="98"
       x2="66"
       y2="98"
       id="line18" />
    <line
       x1="130"
       y1="98"
       x2="178"
       y2="98"
       id="line19" />
    <line
       x1="194"
       y1="98"
       x2="210"
       y2="98"
       id="line20" />
    <line
       x1="226"
       y1="98"
       x2="242"
       y2="98"
       id="line21" />
    <line
       x1="34"
       y1="114"
       x2="50"
       y2="114"
       id="line22" />
    <line
       x1="66"
       y1="114"
       x2="130"
       y2="114"
       id="line23" />
    <line
       x1="194"
       y1="114"
       x2="242"
       y2="114"
       id="line24" />
    <line
       x1="2"
       y1="130"
       x2="18"
       y2="130"
       id="line25" />
    <line
       x1="50"
       y1="130"
       x2="66"
       y2="130"
       id="line26" />
    <line
       x1="130"
       y1="130"
       x2="194"
       y2="130"
       id="line27" />
    <line
       x1="210"
       y1="130"
       x2="226"
       y2="130"
       id="line28" />
    <line
       x1="18"
       y1="146"
       x2="34"
       y2="146"
       id="line29" />
    <line
       x1="146"
       y1="146"
       x2="178"
       y2="146"
       id="line30" />
    <line
       x1="226"
       y1="146"
       x2="242"
       y2="146"
       id="line31" />
    <line
       x1="34"
       y1="162"
       x2="50"
       y2="162"
       id="line32" />
    <line
       x1="82"
       y1="162"
       x2="98"
       y2="162"
       id="line33" />
    <line
       x1="130"
       y1="162"
       x2="146"
       y2="162"
       id="line34" />
    <line
       x1="194"
       y1="162"
       x2="226"
       y2="162"
       id="line35" />
    <line
       x1="2"
       y1="178"
       x2="50"
       y2="178"
       id="line36" />
    <line
       x1="82"
       y1="178"
       x2="114"
       y2="178"
       id="line37" />
    <line
       x1="130"
       y1="178"
       x2="162"
       y2="178"
       id="line38" />
    <line
       x1="178"
       y1="178"
       x2="210"
       y2="178"
       id="line39" />
    <line
       x1="50"
       y1="194"
       x2="82"
       y2="194"
       id="line40" />
    <line
       x1="130"
       y1="194"
       x2="162"
       y2="194"
       id="line41" />
    <line
       x1="210"
       y1="194"
       x2="226"
       y2="194"
       id="line42" />
    <line
       x1="34"
       y1="210"
       x2="50"
       y2="210"
       id="line43" />
    <line
       x1="66"
       y1="210"
       x2="98"
       y2="210"
       id="line44" />
    <line
       x1="114"
       y1="210"
       x2="146"
       y2="210"
       id="line45" />
    <line
       x1="162"
       y1="210"
       x2="194"
       y2="210"
       id="line46" />
    <line
       x1="50"
       y1="226"
       x2="66"
       y2="226"
       id="line47" />
    <line
       x1="114"
       y1="226"
       x2="130"
       y2="226"
       id="line48" />
    <line
       x1="194"
       y1="226"
       x2="226"
       y2="226"
       id="line49" />
    <line
       x1="2"
       y1="242"
       x2="114"
       y2="242"
       id="line50" />
    <line
       x1="130"
       y1="242"
       x2="242"
       y2="242"
       id="line51" />
    <line
       x1="2"
       y1="2"
       x2="2"
       y2="242"
       id="line52" />
    <line
       x1="18"
       y1="2"
       x2="18"
       y2="18"
       id="line53" />
    <line
       x1="18"
       y1="34"
       x2="18"
       y2="50"
       id="line54" />
    <line
       x1="18"
       y1="82"
       x2="18"
       y2="130"
       id="line55" />
    <line
       x1="18"
       y1="146"
       x2="18"
       y2="178"
       id="line56" />
    <line
       x1="18"
       y1="194"
       x2="18"
       y2="242"
       id="line57" />
    <line
       x1="34"
       y1="18"
       x2="34"
       y2="146"
       id="line58" />
    <line
       x1="34"
       y1="178"
       x2="34"
       y2="194"
       id="line59" />
    <line
       x1="34"
       y1="210"
       x2="34"
       y2="226"
       id="line60" />
    <line
       x1="50"
       y1="50"
       x2="50"
       y2="82"
       id="line61" />
    <line
       x1="50"
       y1="98"
       x2="50"
       y2="114"
       id="line62" />
    <line
       x1="50"
       y1="130"
       x2="50"
       y2="178"
       id="line63" />
    <line
       x1="50"
       y1="194"
       x2="50"
       y2="210"
       id="line64" />
    <line
       x1="66"
       y1="18"
       x2="66"
       y2="34"
       id="line65" />
    <line
       x1="66"
       y1="66"
       x2="66"
       y2="98"
       id="line66" />
    <line
       x1="66"
       y1="146"
       x2="66"
       y2="194"
       id="line67" />
    <line
       x1="66"
       y1="210"
       x2="66"
       y2="226"
       id="line68" />
    <line
       x1="82"
       y1="2"
       x2="82"
       y2="18"
       id="line69" />
    <line
       x1="82"
       y1="34"
       x2="82"
       y2="50"
       id="line70" />
    <line
       x1="82"
       y1="98"
       x2="82"
       y2="146"
       id="line71" />
    <line
       x1="82"
       y1="162"
       x2="82"
       y2="194"
       id="line72" />
    <line
       x1="82"
       y1="226"
       x2="82"
       y2="242"
       id="line73" />
    <line
       x1="98"
       y1="18"
       x2="98"
       y2="34"
       id="line74" />
    <line
       x1="98"
       y1="50"
       x2="98"
       y2="66"
       id="line75" />
    <line
       x1="98"
       y1="82"
       x2="98"
       y2="98"
       id="line76" />
    <line
       x1="98"
       y1="130"
       x2="98"
       y2="162"
       id="line77" />
    <line
       x1="98"
       y1="194"
       x2="98"
       y2="242"
       id="line78" />
    <line
       x1="114"
       y1="2"
       x2="114"
       y2="34"
       id="line79" />
    <line
       x1="114"
       y1="66"
       x2="114"
       y2="226"
       id="line80" />
    <line
       x1="130"
       y1="18"
       x2="130"
       y2="98"
       id="line81" />
    <line
       x1="130"
       y1="130"
       x2="130"
       y2="178"
       id="line82" />
    <line
       x1="130"
       y1="226"
       x2="130"
       y2="242"
       id="line83" />
    <line
       x1="146"
       y1="34"
       x2="146"
       y2="66"
       id="line84" />
    <line
       x1="146"
       y1="98"
       x2="146"
       y2="114"
       id="line85" />
    <line
       x1="146"
       y1="210"
       x2="146"
       y2="226"
       id="line86" />
    <line
       x1="162"
       y1="18"
       x2="162"
       y2="34"
       id="line87" />
    <line
       x1="162"
       y1="66"
       x2="162"
       y2="82"
       id="line88" />
    <line
       x1="162"
       y1="114"
       x2="162"
       y2="130"
       id="line89" />
    <line
       x1="162"
       y1="162"
       x2="162"
       y2="178"
       id="line90" />
    <line
       x1="162"
       y1="194"
       x2="162"
       y2="242"
       id="line91" />
    <line
       x1="178"
       y1="2"
       x2="178"
       y2="50"
       id="line92" />
    <line
       x1="178"
       y1="82"
       x2="178"
       y2="114"
       id="line93" />
    <line
       x1="178"
       y1="146"
       x2="178"
       y2="210"
       id="line94" />
    <line
       x1="178"
       y1="226"
       x2="178"
       y2="242"
       id="line95" />
    <line
       x1="194"
       y1="18"
       x2="194"
       y2="82"
       id="line96" />
    <line
       x1="194"
       y1="114"
       x2="194"
       y2="162"
       id="line97" />
    <line
       x1="194"
       y1="178"
       x2="194"
       y2="194"
       id="line98" />
    <line
       x1="194"
       y1="210"
       x2="194"
       y2="226"
       id="line99" />
    <line
       x1="210"
       y1="18"
       x2="210"
       y2="34"
       id="line100" />
    <line
       x1="210"
       y1="50"
       x2="210"
       y2="66"
       id="line101" />
    <line
       x1="210"
       y1="82"
       x2="210"
       y2="98"
       id="line102" />
    <line
       x1="210"
       y1="130"
       x2="210"
       y2="162"
       id="line103" />
    <line
       x1="210"
       y1="194"
       x2="210"
       y2="210"
       id="line104" />
    <line
       x1="226"
       y1="2"
       x2="226"
       y2="50"
       id="line105" />
    <line
       x1="226"
       y1="66"
       x2="226"
       y2="82"
       id="line106" />
    <line
       x1="226"
       y1="162"
       x2="226"
       y2="194"
       id="line107" />
    <line
       x1="226"
       y1="210"
       x2="226"
       y2="226"
       id="line108" />
    <line
       x1="242"
       y1="2"
       x2="242"
       y2="242"
       id="line109" />
  </g>
  <metadata
     id="metadata109">
    <rdf:RDF>
      <cc:Work
         rdf:about="">
        <dc:title>15 by 15 orthogonal maze</dc:title>
      </cc:Work>
    </rdf:RDF>
  </metadata>
</svg>
